<?xml version="1.0" encoding="utf-8"?>
<!-- Generator: Adobe Illustrator 27.6.1, SVG Export Plug-In . SVG Version: 6.00 Build 0)  -->
<svg version="1.1" id="Layer_1" xmlns="http://www.w3.org/2000/svg" xmlns:xlink="http://www.w3.org/1999/xlink" x="0px" y="0px"
	 viewBox="0 0 1364 541.1" style="enable-background:new 0 0 1364 541.1;" xml:space="preserve">
<style type="text/css">
	.st0{fill:#00447E;}
</style>
<g>
	<g>
		<path class="st0" d="M417.4,384l4.4-40.1c0.5-4.1,1.7-5.4,4.7-5.4h1.2c3.1,0,6,1.3,5.5,5.4l-4.2,40.4c-0.5,4.3,0.4,6,3.6,6.6
			c0.2,0.1-0.1,4-6.1,4C419,394.9,416.7,390.4,417.4,384z"/>
		<path class="st0" d="M436.2,378.4c-1.5-14.2,8.2-24.3,21.9-24.3c9.9,0,15.9,4.6,16.6,11.4c0.8,7.7-3.9,12.7-21.1,12.7
			c-2.4,0-4.9-0.1-7.8-0.3c0.1,0.6,0.2,1.1,0.5,1.7c1.4,4.5,4.3,7.4,9.8,7.4c5.1,0,8.6-2.1,10.8-5.4c0.1-0.2,4.9,0.6,5.3,4.3
			c0.2,1.8-0.4,3-1.8,4.6c-2.6,2.9-7,4.6-13.8,4.6C444.1,395,437.2,388.1,436.2,378.4z M452,371.5c10.6,0,13.4-2.5,13.1-5.6
			c-0.2-2.2-2.5-4.2-6.8-4.2c-5.8,0-10.2,4.1-11.9,9.5C448.6,371.5,450.4,371.5,452,371.5z"/>
		<path class="st0" d="M478.6,379c-1.3-12.8,5.8-25,18.7-25c5.5,0,10.7,2.6,13.3,7.2c0.6-2.3,1.4-4,2.7-5c1.2-1,2.8-1.5,4.8-1.5
			c2.3,0,4.2,1,4.1,1.4l-3,28.2c-0.5,4.3,0.5,6,3.5,6.6c0.2,0.1-0.1,4-5.9,4c-3.6,0-6.1-1.4-7.4-3.7c-0.7-1.1-1.1-2.6-1.3-4.3
			c-2.5,5.1-7.2,8.2-13.1,8.2C486.5,395,479.6,389.1,478.6,379z M508.7,375.3l0.5-5.5c-1.8-4.1-4.8-6.8-9.5-6.8
			c-7.3,0-11,7.4-10.2,14.6c0.5,5.2,4.2,8.4,8.6,8.4C503.8,385.9,508.1,381.4,508.7,375.3z"/>
		<path class="st0" d="M567.4,360c0.2,1.8-0.3,3.2-1.8,5.9L552,391.1c-1.5,2.9-4.6,3.4-6.8,3.4c-2.9,0-5.9-1-6.7-4.2l-5.5-22.2
			c-1.4-6.1-3.4-7.7-6.6-7.9c-0.2,0,0-5.8,6.5-5.8c2.4,0,4.2,0.6,5.8,2.1c2.4,2.2,3.7,5.8,4.7,11.1l2.8,14.8l12.8-27.9
			C559,354.2,566.8,354.7,567.4,360z"/>
		<path class="st0" d="M569.7,378.4c-1.5-14.2,8.2-24.3,21.9-24.3c9.9,0,15.9,4.6,16.6,11.4c0.8,7.7-3.9,12.7-21.1,12.7
			c-2.4,0-4.9-0.1-7.8-0.3c0.1,0.6,0.4,1.2,0.6,1.7c0.8,4.5,4.2,7.4,9.7,7.4c5.1,0,8.6-2.1,10.8-5.4c0.1-0.2,4.9,0.6,5.3,4.3
			c0.2,1.8-0.4,3-1.8,4.6c-2.6,2.9-7,4.6-13.8,4.6C577.6,395,570.7,388.1,569.7,378.4z M585.5,371.5c10.6,0,13.4-2.5,13.1-5.6
			c-0.2-2.2-2.5-4.2-6.8-4.2c-5.8,0-10.2,4.1-11.9,9.5C582.1,371.5,583.9,371.5,585.5,371.5z"/>
	</g>
	<g>
		<path class="st0" d="M628,384l2.6-23.8c0.5-4.1,1.7-5.4,4.7-5.4h1.2c3.1,0,6,1.2,5.5,5.4l-2.6,24.2c-0.5,4.3,0.4,6,3.6,6.6
			c0.2,0.1-0.1,4-6.1,4C629.6,394.9,627.3,390.4,628,384z M631.8,343.6c-0.4-3.6,2-6.5,6.1-6.5c3.7,0,6.3,2.1,6.6,5.4
			c0.4,3.6-2,6.5-6.1,6.5C634.7,348.9,632.1,346.8,631.8,343.6z"/>
		<path class="st0" d="M652.1,380.3l1.7-16.4h-1.8c-2.6,0-4.3-1.1-4.5-3c-0.1-1,0.1-3.5,1.1-4.6c0.7-0.8,1.6-1.2,3.9-1.2h2.2
			l0.2-2.2c0.5-5.8,2.7-8.2,7.5-8.2c2.6,0,4.5,1,4.5,1.4l-1,9h6.4c2.7,0,4.4,1.1,4.5,3c0.1,1.1-0.1,3.5-1.1,4.7
			c-0.7,0.8-1.6,1.2-3.9,1.2H665l-1.8,15.9c-0.5,4.6,1.3,6.6,4.4,6.6c1.9,0,3.6-1,4.5-2c0.3-0.2,2,1.1,2.2,3.4
			c0.2,1.8-0.3,3.2-1.4,4.6c-1.6,1.7-4.3,2.8-8.1,2.8C655.8,395.2,651.1,389.8,652.1,380.3z"/>
	</g>
	<path class="st0" d="M750.1,365L739,391.1c-1.2,2.7-3.2,3.4-6.1,3.4c-4,0-5.6-1.3-6.3-4.6l-3.8-17.8l-8.3,19
		c-1.2,2.6-3,3.4-5.8,3.4c-4.4,0-6.1-1.5-6.6-4.6l-3.1-22.2c-0.7-5.6-2.9-7.4-6.1-7.7c-0.4,0-0.3-5.6,6.2-5.6c2.4,0,4.2,0.6,5.8,2
		c2.1,2,3.4,5.6,4,11l1.4,14.6l7.3-19.4c1.1-3,2.8-3.8,5.8-3.8c3.8,0,6.2,1.4,6.8,5l3.1,18.6l9.8-27.9c0.1-0.2,7.5-0.2,8.3,5.2
		C751.7,361.2,751.3,362.5,750.1,365z"/>
	<path class="st0" d="M755,384l2.6-23.8c0.5-4.1,1.7-5.4,4.7-5.4h1.2c3.1,0,6,1.2,5.5,5.4l-2.6,24.2c-0.5,4.3,0.4,6,3.6,6.6
		c0.2,0.1-0.1,4-6.1,4C756.6,394.9,754.3,390.4,755,384z M758.9,343.6c-0.4-3.6,2-6.5,6.1-6.5c3.7,0,6.3,2.1,6.6,5.4
		c0.4,3.6-2,6.5-6.1,6.5C761.7,348.9,759.2,346.8,758.9,343.6z"/>
	<path class="st0" d="M779.2,380.3l1.7-16.4h-1.8c-2.6,0-4.3-1.1-4.5-3c-0.1-1,0.1-3.5,1.1-4.6c0.7-0.8,1.6-1.2,3.9-1.2h2.2l0.2-2.2
		c0.5-5.8,2.7-8.2,7.5-8.2c2.6,0,4.5,1,4.5,1.4l-1,9h6.4c2.7,0,4.4,1.1,4.5,3c0.1,1.1-0.1,3.5-1.1,4.7c-0.7,0.8-1.6,1.2-3.9,1.2H792
		l-1.8,15.9c-0.5,4.6,1.3,6.6,4.4,6.6c1.9,0,3.6-1,4.5-2c0.3-0.2,2,1.1,2.2,3.4c0.2,1.8-0.3,3.2-1.4,4.6c-1.6,1.7-4.3,2.8-8.1,2.8
		C782.9,395.2,778.2,389.8,779.2,380.3z"/>
	<path class="st0" d="M833.7,387.9c-0.2-2.3,0.2-5.2,0.9-9.6c0.7-3.7,1-6.8,0.9-8.4c-0.4-3.9-2.8-6.3-6.8-6.3
		c-3.8,0-6.1,1.8-8.2,5.6l-2.1,19.7c-0.4,4.2-1.8,5.5-4.7,5.5h-1.3c-3,0-5.9-1.3-5.5-5.5l4.8-45c0.5-4.1,1.8-5.4,4.7-5.4h1.3
		c3,0,5.9,1.3,5.5,5.4l-1.9,17.6c2.4-4.6,6.8-7.4,12.2-7.4c7.8,0,12.9,5.2,13.6,12.5c0.3,2.9-0.2,6.8-1,11.6c-0.7,3.8-1.2,7-1,8.6
		c0.2,2.2,1.4,3.1,3.6,3.5c0.2,0-0.2,4.6-6.4,4.6C836.8,394.9,834.1,392.1,833.7,387.9z"/>
	<path class="st0" d="M867.9,377.3l1.8-17.1c0.4-4.2,1.8-5.4,4.7-5.4h1.3c3,0,6,1.2,5.5,5.4l-1.8,16.3c-0.6,5.4,1.7,9,6.6,9
		c3.9,0,6.2-1.8,8.2-5.6l2.2-19.8c0.4-4.2,1.7-5.4,4.6-5.4h1.3c3.1,0,6,1.2,5.5,5.4l-2.6,24.2c-0.5,4.3,0.5,6,3.5,6.6
		c0.2,0.1-0.1,4-5.9,4c-3,0-5.5-1-7-3c-0.8-1.1-1.3-2.7-1.6-4.5c-2.7,4.7-6.9,7.6-12.6,7.6C871.8,395,866.8,387.9,867.9,377.3z"/>
	<path class="st0" d="M914.3,389.9c-1.4-1.4-2.5-3-2.6-4.6c-0.4-3.4,3-5.2,3.3-4.9c3.1,3.5,8.3,6.6,13.6,6.6c3.8,0,5.7-1.5,5.4-4
		c-0.2-2.2-2.7-3.1-6.6-4.5c-5.7-2.2-11.8-4.6-12.5-11.8c-0.7-7,4.4-12.6,14.5-12.6c6.2,0,11.6,2,14.8,4.9c1.4,1.3,2.3,2.7,2.5,4.4
		c0.4,3.8-3.4,5.4-3.7,5c-2.8-3.5-7.6-6.4-12.3-6.4c-3.8,0-5.6,1.8-5.3,3.9c0.2,2.3,3.1,3.4,7.4,5c6.2,2.2,12.1,4.8,12.8,11.4
		c0.8,7.4-4.4,12.5-15.1,12.5C923.2,394.9,917.5,392.7,914.3,389.9z"/>
	<g>
		<g>
			<path class="st0" d="M417.2,275.2c-1.6,0.6-3.1,1.1-4.6,1.5c-1.5,0.5-3.3,0.7-5.3,0.8c-0.5,0-1.3,0-2.4,0c-1.1,0-2.3-0.3-3.7-0.8
				c-1.4-0.5-2.8-1.3-4.3-2.4c-1.5-1.1-2.8-2.7-4-4.9c-1-1.6-1.8-3.6-2.3-5.9c-0.5-2.3-0.8-5.5-0.8-9.7c0-16.7,0-33.5,0-50.2
				c0,0,0,0,0,0c6.1-0.3,12.2-0.5,18.3-0.8c2.4-0.3,4.4-2.4,4.4-4.8c0-3.6,0-7.2,0-10.9c-7.6,0.3-15.1,0.6-22.7,0.9
				c0-6.7,0-13.4,0-20.1c0,0,0,0,0,0c0-3.8-3-6.7-6.8-6.6c-6.3,0.3-12.7,0.6-19,0.9c0,9,0,18,0,27c0,5.2,0,10.4,0,15.5
				c0,18.1,0,36.2,0,54.3c0,4.4,0.5,8.7,1.4,12.8c0.9,4.2,3.2,7.9,6.8,11.2c1.9,1.8,4,3.3,6.1,4.2c2.1,0.9,4.2,1.7,6.2,2.2
				c2,0.5,3.9,0.8,5.7,0.8c1.8,0,3.3,0.1,4.5,0c6.5-0.3,11.6-1.4,15.4-3.3c3.8-1.9,7.2-3.8,10.2-5.7
				C419.3,279.3,418.2,277.3,417.2,275.2z"/>
			<path class="st0" d="M1085.4,180.8c-2.8-3-4.3-6.5-4.3-10.5c0-3.9,1.4-7.2,4.3-9.8c2.8-2.7,6.3-3.9,10.3-3.7
				c3.9,0.2,7.2,1.9,10.1,4.9c2.8,3,4.3,6.5,4.3,10.4c0,4-1.4,7.4-4.2,10c-2.8,2.7-6.2,3.9-10.2,3.6
				C1091.6,185.4,1088.2,183.8,1085.4,180.8z"/>
			<path class="st0" d="M518.3,210c-0.1-2.7-0.6-5.5-1.4-8.2c-0.8-2.8-2-5.5-3.8-8.2c-1.7-2.7-4.2-5-7.5-7c-2.6-1.6-5.6-2.9-8.9-3.8
				c-3.4-0.9-7-1.4-10.9-1.2c-4.5,0.1-8.5,0.9-12,2.2c-3.5,1.3-6.5,2.9-9.1,4.6c-2.6,1.7-4.7,3.5-6.4,5.3c-1.7,1.8-3,3.3-4.1,4.5
				c0-14.4,0-28.8,0-43.2c0-3.8-3.1-6.7-6.8-6.6c-6.3,0.2-12.7,0.4-19,0.7c0,43.4,0,86.8,0,130.2c0,3.8,3.1,6.7,6.9,6.6
				c6.3-0.2,12.6-0.5,19-0.7c0-24.9,0-49.8,0-74.7c2.8-3.3,6-6.2,9.6-8.7c3.6-2.4,7.5-3.7,11.7-3.9c4.5-0.1,8.4,1.3,11.5,4.3
				c2.7,2.6,4.3,5.9,4.9,9.9c0.5,3.9,0.8,8.2,0.8,12.9c0,17.4,0,34.8,0,52.2c0,3.8,3.1,6.7,6.9,6.6c6.3-0.2,12.7-0.3,19-0.5
				c0-21.9,0-43.9,0-65.8C518.5,215.2,518.4,212.8,518.3,210z"/>
			<path class="st0" d="M617.3,182.2c-6.3,0.1-12.7,0.1-19,0.2c0,25.2,0,50.5,0,75.7c-2.7,3.1-5.8,5.8-9.2,8
				c-3.4,2.2-7.2,3.3-11.3,3.4c-6.5,0.1-11.1-1.8-13.9-5.8c-2.7-4-4.1-9.2-4.1-15.8c0-19.3,0-38.7,0-58c0-3.7-3.1-6.7-6.8-6.7
				c-6.3,0.1-12.7,0.2-19,0.4c0,22.8,0,45.7,0,68.5c0,2.2,0.2,5.2,0.5,9c0.3,3.8,1.6,7.5,3.7,11.2c2.1,3.6,5.5,6.8,10,9.4
				c4.5,2.6,11,3.9,19.4,3.7c4.5-0.1,8.4-0.7,11.7-1.7c3.2-1.1,6.1-2.4,8.4-4c2.4-1.6,4.4-3.3,6.1-5c1.7-1.8,3.2-3.4,4.5-5
				c0,1.8,0,3.6,0,5.4c0,3.8,3.1,6.8,6.9,6.8c6.3-0.1,12.7-0.1,19-0.2c0-30.9,0-61.7,0-92.6C624.1,185.2,621.1,182.2,617.3,182.2z"
				/>
			<path class="st0" d="M346.1,187.2c-4.4,0.2-8.2,1-11.5,2.2c-3.3,1.3-6.1,2.8-8.4,4.5c-2.3,1.7-4.2,3.5-5.7,5.3
				c-1.5,1.8-2.7,3.4-3.8,4.8c0-1.9,0-3.8,0-5.6c0-3.7-3.1-6.6-6.8-6.4c-6.3,0.3-12.7,0.7-19,1.1c0,30.8,0,61.7,0,92.5
				c0,3.8,3.1,6.7,6.9,6.5c6.3-0.4,12.6-0.7,19-1c0-25.7,0-51.4,0-77.1c2.2-1.5,4.9-3.2,8-4.9c3.1-1.7,7.1-2.7,11.8-2.9
				c3.6-0.2,6.8,0.1,9.4,1c0.4,0.1,0.8,0.3,1.2,0.4c0,0,0,0,0,0c0.5,0.2,1.1,0.2,1.7,0.2c2.6-0.1,4.7-2.3,4.8-4.9
				c0-5.1,0-10.2,0-15.4C351.1,187.2,348.7,187.1,346.1,187.2z"/>
			<path class="st0" d="M695,179c-4.4,0-8.3,0.5-11.6,1.6c-3.3,1.1-6.1,2.5-8.5,4.1c-2.3,1.6-4.2,3.3-5.7,5.1
				c-1.5,1.8-2.8,3.3-3.8,4.6c0-1.9,0-3.8,0-5.6c0-3.7-3.1-6.8-6.8-6.8c-6.3,0-12.7,0.1-19,0.1c0,30.8,0,61.7,0,92.5
				c0,3.8,3.1,6.8,6.9,6.8c6.3,0,12.7-0.1,19-0.1c0-25.7,0-51.4,0-77.1c2.2-1.4,4.9-2.9,8-4.5c3.1-1.6,7.1-2.3,11.9-2.3
				c3.6,0,6.8,0.5,9.4,1.5c0.4,0.1,0.8,0.3,1.2,0.5c0,0,0,0,0,0c0.5,0.2,1.1,0.3,1.7,0.3c2.6,0,4.7-2.1,4.8-4.7c0-5.1,0-10.2,0-15.4
				C700,179.2,697.6,179,695,179z"/>
			<path class="st0" d="M973.9,219.8c-0.1-2.7-0.5-5.5-1.2-8.3c-0.6-2.8-1.6-5.7-2.9-8.6c-1.3-2.9-3.2-5.6-5.6-8.2
				c-2.8-3.1-7-5.9-12.4-8.5c-5.4-2.5-12.4-4-21-4.3c-7.4-0.3-13.5,0.5-18.4,2.2c-4.9,1.7-8.8,3.9-11.9,6.5
				c-3.1,2.6-5.5,5.5-7.2,8.5c-1.7,3.1-3,5.7-4.1,8c2.2,1.2,4.4,2.3,6.6,3.5c1-1.3,2.3-2.7,3.7-4.3c1.4-1.6,3.2-3.2,5.3-4.7
				c2.1-1.5,4.7-2.7,7.7-3.6c3-0.9,6.5-1.3,10.7-1.2c1.8,0.1,3.8,0.3,6,0.8c2.2,0.5,4.4,1.2,6.5,2.3c2.1,1.1,4.1,2.5,6,4.2
				c1.9,1.8,3.4,4,4.6,6.6c1,2.5,1.7,5,2,7.6c0.3,2.5,0.5,5.1,0.7,7.7c-3.9-1.3-7.6-2.5-11.1-3.4c-3.5-1-7.6-1.5-12.4-1.7
				c-5.8-0.2-11.3,0.4-16.3,1.8c-5,1.4-9.5,3.5-13.3,6.5c-3.8,2.9-6.8,6.6-9,11c-2.2,4.4-3.3,9.4-3.3,15.1c0,4.4,0.8,8.6,2.3,12.5
				c1.6,3.9,3.8,7.4,6.6,10.4c2.8,3,6.3,5.4,10.4,7.1c4.1,1.7,8.6,2.7,13.7,2.9c4.7,0.2,8.8-0.2,12.3-1.1c3.6-0.9,6.6-2.1,9.2-3.4
				c2.6-1.4,4.8-2.9,6.6-4.4c1.8-1.5,3.2-2.9,4.3-4c0,1.5,0,3.1,0,4.6c0,3.8,3.1,6.9,6.8,7.1c6.1,0.2,12.1,0.5,18.2,0.8
				c0-20.1,0-40.1,0-60.2C974.1,225,974,222.5,973.9,219.8z M949,266.1c-2.6,1.6-5.5,3.1-8.7,4.5c-3.2,1.4-7.1,2.1-11.6,1.9
				c-3.2-0.1-6-0.7-8.3-1.8c-2.3-1.1-4.1-2.5-5.5-4.3c-1.4-1.7-2.5-3.7-3.1-5.8c-0.6-2.2-1-4.3-1-6.3c0-6.3,2.2-11,6.5-13.9
				c4.3-2.9,9.4-4.2,15-4c3.4,0.1,6.3,0.6,8.9,1.4c2.6,0.8,5.2,1.8,7.8,2.9C949,249.1,949,257.6,949,266.1z"/>
			<path class="st0" d="M1101.9,194.8c-6.3-0.4-12.7-0.8-19-1.1c0,30.9,0,61.7,0,92.6c0,3.8,3.1,7,6.8,7.2c6.3,0.4,12.6,0.8,19,1.2
				c0-30.9,0-61.7,0-92.6C1108.6,198.3,1105.6,195,1101.9,194.8z"/>
			<path class="st0" d="M1211.7,164.7c-6.3-0.5-12.6-1-19-1.4c0,16.1,0,32.2,0,48.2c-1.2-1.5-2.6-3.2-4.2-5.1
				c-1.6-1.9-3.6-3.6-5.9-5.3c-2.3-1.7-5-3.1-8.1-4.4c-3.1-1.3-6.7-2-10.9-2.3c-7-0.5-13.2,0.6-18.5,3.2c-5.4,2.6-9.9,6.3-13.6,11.1
				c-3.7,4.8-6.5,10.5-8.4,17c-1.9,6.5-2.9,12.8-2.9,20.2c0,8.5,1.1,16.2,3.3,22.8c2.2,6.7,5.2,12.3,9,17c3.8,4.7,8.3,8.3,13.4,10.9
				c5.1,2.6,10.5,4.1,16.2,4.5c4.3,0.3,8,0.1,11.2-0.7c3.2-0.7,6-1.7,8.4-3c2.4-1.2,4.5-2.6,6.3-4.2c1.8-1.5,3.4-2.9,4.6-4.1
				c0,1.4,0,2.8,0.1,4.3c0,3.8,3.1,7,6.8,7.3c6.3,0.5,12.7,1,19,1.5c0-43.4,0-86.8,0-130.3C1218.4,168.3,1215.4,165.1,1211.7,164.7z
				 M1192.7,276.7c-2.1,2.3-4.7,4.6-7.9,6.9c-3.2,2.3-7.5,3.2-12.9,2.8c-7.8-0.6-13.9-4.4-18.3-11.6c-4.5-7.2-6.7-16.8-6.7-29
				c0-1.3,0.1-2.5,0.2-4.8c0.1-2.4,0.5-5,1.1-7.9c0.6-2.9,1.5-5.7,2.8-8.6c1.3-2.9,3.1-5.5,5.4-7.8c1.8-1.7,4-3.1,6.7-4.2
				c2.6-1.1,5.7-1.5,9-1.3c4.7,0.3,8.6,1.8,11.9,4.3c3.3,2.5,6.2,5.9,8.6,10.2C1192.7,242.7,1192.7,259.7,1192.7,276.7z"/>
			<path class="st0" d="M1006.5,207.1"/>
			<path class="st0" d="M259.9,294.3c7.7-0.5,15.3-0.9,23-1.4c-21-44.5-41.9-88.8-62.9-133.1c-3.2,0.2-6.3,0.4-9.5,0.6
				c-21.7,47.2-43.3,94.5-64.9,141.9c8-0.6,16-1.2,24-1.8c4.5-10.4,9-20.9,13.6-31.3c0,0,0,0,0,0c18.9-1.4,37.7-2.7,56.6-3.9
				c3.7,8.1,7.5,16.2,11.2,24.3C252.3,291.7,255,294.6,259.9,294.3z M191.3,250.6c6.6-15.3,13.2-30.6,19.8-45.8
				c6.8,14.3,13.6,28.7,20.4,43.1C218.1,248.7,204.7,249.6,191.3,250.6z"/>
			<path class="st0" d="M1053.1,191.9c-7.1,16.6-14.1,33.3-21.2,49.9c-0.4,1-0.7,1.8-1,2.5c-0.3,0.6-0.5,1.2-0.7,1.7
				c-0.2,0.5-0.4,1.1-0.6,1.7c-0.2,0.6-0.4,1.5-0.7,2.5c-8-18.9-16-37.8-23.9-56.6c-1-2.5-3.5-4.3-6.3-4.4c-7.8-0.4-15.6-0.7-23.5-1
				c15.2,33.8,30.5,67.6,45.7,101.5c2.7,0.1,5.3,0.3,8,0.4c15-32.4,30-64.7,44.9-97C1066.9,192.7,1060,192.3,1053.1,191.9z"/>
			<path class="st0" d="M874,187.1c-3.4-9.3-8.2-17.1-14.6-23.5c-4.3-4.2-8.8-7.6-13.6-10c-4.8-2.4-9.5-4.3-14.2-5.5
				c-4.7-1.2-9.1-1.9-13.4-2.2c-4.3-0.3-8-0.5-11.3-0.5c-16.4-0.3-32.9-0.5-49.3-0.7c0,43.4,0,86.9,0,130.3c0,3.7,3.1,6.8,6.9,6.8
				c0,0,0,0,0,0c12.5,0.1,25.1,0.3,37.6,0.6c6,0.1,11.5,0,16.7-0.3c5.2-0.3,10.1-1,14.9-2.2c4.7-1.2,9.2-2.9,13.4-5.1
				c4.2-2.2,8.3-5.3,12.3-9.2c6.6-6.6,11.5-14.2,14.8-22.9c3.2-8.7,4.9-17.8,4.9-27.2C879,205.8,877.4,196.4,874,187.1z
				 M846.7,235.5c-2,6.8-5.6,12.7-10.6,17.8c-4.2,4-9,6.8-14.6,8.2c-5.6,1.4-11.3,2.1-17.1,2c-6.4-0.1-12.7-0.2-19.1-0.3
				c0-33.3,0-66.6,0-99.8c0,0,19.6,0.4,25.9,1c7.7,0.7,14.4,3.2,20.3,7.3c4.7,3.3,8.9,8.5,12.7,15.6c3.8,7.1,5.7,16.1,5.7,27.1
				C849.7,221.6,848.7,228.7,846.7,235.5z"/>
		</g>
	</g>
</g>
</svg>
